<svg xmlns="http://www.w3.org/2000/svg" xmlns:xlink="http://www.w3.org/1999/xlink" width="300" height="80" version="1.1" viewBox="0 0 300 80"><desc>Created with Lunacy</desc><g id="Group"><path id="Rectangle" fill="#FFF" fill-opacity="0" stroke="none" d="M0 0L300 0L300 80L0 80L0 0Z"/><g id="2URLs" fill="#FFF"><path d="M28.5938 12.0313L35.1328 12.0313L35.1328 30.8516Q35.1328 33.4766 36.5859 35.0703Q38.0391 36.6641 40.4063 36.6641Q43.125 36.6641 44.625 35.0586Q46.125 33.4531 46.125 30.5234L46.125 12.0313L52.6406 12.0313L52.6406 31.9531Q52.6406 34.5781 51.2813 37.4023Q49.9219 40.2266 47.0977 41.7266Q44.2734 43.2266 40.7813 43.2266Q34.4531 43.2266 31.5234 39.6992Q28.5938 36.1719 28.5938 32.2813L28.5938 12.0313ZM69.1289 12.0313L58.9922 12.0313L58.9922 42.8047L65.625 42.8047L65.625 30.8984L66.375 30.8984L74.3394 42.8047L81.9609 42.8047L73.3491 29.9756Q76.6597 28.5232 77.8923 25.9698Q79.125 23.4164 79.125 21.0503Q79.125 16.9037 76.4383 14.4675Q73.7516 12.0313 69.1289 12.0313ZM87.1875 12.0313L93.7734 12.0313L93.7734 36.1719L102.844 36.1719L102.844 42.8047L87.1875 42.8047L87.1875 12.0313ZM14.7188 37.2266L23.25 37.2266L23.25 42.8047L2.36719 42.8047L12.5625 29.8438Q14.7891 26.9844 15.7383 25.1563Q16.6875 23.3281 16.6875 21.7344Q16.6875 20 15.5508 18.875Q14.4141 17.75 12.7031 17.75Q10.7344 17.75 9.84375 19.168Q8.95313 20.5859 8.76563 23.6094L2.13281 23.6094Q2.10937 18.1719 5.32031 15.1953Q8.53125 12.2188 13.2656 12.2188Q17.6719 12.2188 20.4609 14.7852Q23.25 17.3516 23.25 21.3594Q23.25 25.2734 19.9922 30.0313L18.2109 32.6328Q17.1563 34.2031 15.5391 36.2188L14.7188 37.2266ZM65.6719 25.5313L65.6719 17.5156L67.2008 17.5156Q69.5999 17.5156 70.9523 18.5352Q72.3047 19.5547 72.3047 21.2891Q72.3047 25.5313 67.1067 25.5313L65.6719 25.5313ZM118.008 27.9688L122.086 25.4844Q118.945 22.25 115.078 22.25Q111.586 22.25 109.418 23.9492Q107.25 25.6484 107.25 28.3203Q107.25 32.75 113.297 34.7231Q114.844 35.2164 114.984 35.3809Q115.336 35.3809 116.063 35.8154Q116.789 36.2499 116.789 37.0911Q116.789 37.7455 116.156 38.2595Q115.523 38.7734 114.727 38.7734Q112.969 38.7734 111.328 35.9375L106.477 38.1406Q108.023 40.6953 110.238 41.9375Q112.453 43.1797 114.68 43.1797Q117.961 43.1797 120.305 41.3164Q122.648 39.4531 122.648 36.8516Q122.648 34.2734 121.09 32.8203Q119.531 31.3672 116.829 30.4381Q114.127 29.509 113.501 29.0646Q112.875 28.6202 112.875 27.6377Q112.875 27.0294 113.417 26.6085Q113.958 26.1875 114.712 26.1875Q116.242 26.1875 118.008 27.9688Z" transform="translate(87.5 14)"/></g></g></svg>